<svg id="svg" version="1.1" xmlns="http://www.w3.org/2000/svg" xmlns:xlink="http://www.w3.org/1999/xlink" width="400" height="400" viewBox="0, 0, 400,400"><g id="svgg"><path id="path0" d="M53.200 192.100 C 53.199 252.486,53.251 250.956,51.045 255.802 C 48.036 262.412,38.858 264.656,28.300 261.364 C 27.644 261.160,27.600 261.880,27.600 272.700 L 27.600 284.253 30.100 284.714 C 52.564 288.855,71.966 281.552,78.104 266.644 C 78.276 266.228,78.670 265.328,78.981 264.644 C 83.321 255.084,83.596 250.470,83.598 187.300 L 83.600 136.400 68.400 136.400 L 53.200 136.400 53.200 192.100 M246.800 200.800 L 246.800 261.200 261.600 261.200 L 276.400 261.200 276.403 239.500 C 276.407 215.956,276.775 210.148,278.590 205.000 C 282.750 193.201,296.250 191.021,300.844 201.407 C 302.642 205.471,302.799 208.208,302.799 235.500 L 302.800 261.200 317.600 261.200 L 332.400 261.200 332.399 230.300 C 332.399 192.719,332.248 191.409,327.038 183.616 C 320.543 173.900,304.297 169.059,291.800 173.116 C 288.977 174.033,286.859 175.035,284.750 176.451 C 282.739 177.802,281.495 179.054,277.976 183.275 C 277.204 184.201,276.747 184.437,276.115 184.237 C 275.185 183.941,275.177 183.047,276.019 172.731 C 276.229 170.163,276.400 161.838,276.400 154.231 L 276.400 140.400 261.600 140.400 L 246.800 140.400 246.800 200.800 M207.013 187.123 C 205.354 187.208,204.805 187.358,205.213 187.616 C 205.636 187.884,205.386 187.989,204.319 187.994 C 203.504 187.997,202.424 188.160,201.919 188.356 C 201.413 188.552,199.650 189.125,198.000 189.629 C 196.350 190.133,194.628 190.872,194.174 191.272 C 193.720 191.673,193.033 192.000,192.647 192.000 C 192.262 192.000,190.952 192.810,189.736 193.800 C 188.521 194.790,187.344 195.600,187.121 195.600 C 186.897 195.600,186.812 195.853,186.931 196.163 C 187.065 196.513,186.815 196.813,186.273 196.953 C 185.350 197.193,181.730 202.618,181.920 203.478 C 181.977 203.741,181.624 205.181,181.135 206.678 C 179.996 210.161,179.890 219.134,180.943 223.000 C 183.163 231.153,188.992 237.027,200.200 242.402 C 214.959 249.479,216.040 250.052,217.753 251.699 C 222.838 256.589,219.839 262.639,211.685 263.946 C 206.007 264.855,192.276 262.374,185.400 259.197 C 183.740 258.429,179.894 256.800,179.744 256.800 C 179.658 256.800,179.635 261.677,179.694 267.638 L 179.800 278.476 183.068 279.794 C 203.865 288.182,230.010 284.020,239.668 270.782 C 242.909 266.341,245.200 267.291,245.200 273.076 C 245.200 276.113,245.268 276.400,245.986 276.400 C 246.705 276.400,246.781 276.070,246.886 272.500 L 247.000 268.600 248.100 268.473 C 250.915 268.150,249.200 267.200,245.800 267.200 C 241.869 267.200,241.987 267.401,243.450 263.200 C 246.122 255.529,244.598 244.960,239.900 238.578 C 236.529 233.999,233.124 231.817,217.494 224.219 C 206.731 218.987,204.400 217.075,204.400 213.479 C 204.400 208.410,210.767 205.867,219.600 207.407 C 225.661 208.464,228.691 209.349,235.047 211.919 L 237.094 212.746 237.547 211.773 C 237.796 211.238,238.180 210.350,238.400 209.800 C 238.620 209.250,238.980 208.350,239.200 207.800 C 239.420 207.250,239.763 206.395,239.963 205.900 C 241.813 201.311,244.403 194.539,244.401 194.295 C 244.401 194.127,243.455 193.547,242.300 193.005 C 240.307 192.069,238.841 191.241,238.400 190.800 C 238.290 190.690,237.750 190.547,237.200 190.483 C 236.650 190.418,235.840 190.213,235.400 190.026 C 234.147 189.495,229.098 188.310,228.100 188.313 C 227.605 188.314,227.200 188.144,227.200 187.934 C 227.200 187.724,227.022 187.663,226.804 187.797 C 226.587 187.932,225.372 187.854,224.104 187.624 C 221.773 187.202,211.400 186.897,207.013 187.123 M127.800 187.599 C 127.664 187.820,126.438 188.000,125.076 188.000 C 123.714 188.001,121.250 188.276,119.600 188.613 C 117.950 188.949,115.921 189.333,115.090 189.466 C 114.260 189.599,113.484 189.864,113.367 190.054 C 113.249 190.244,112.801 190.400,112.371 190.400 C 111.941 190.400,111.277 190.565,110.895 190.767 C 110.513 190.969,108.636 191.893,106.725 192.820 C 101.235 195.483,93.200 202.688,93.200 204.946 C 93.200 205.280,93.040 205.652,92.844 205.773 C 92.311 206.102,89.404 212.255,88.485 215.000 C 83.456 230.015,84.288 249.554,90.522 262.800 C 95.378 273.117,104.692 280.432,116.400 283.123 C 121.782 284.360,123.496 284.524,131.000 284.524 C 138.504 284.524,140.218 284.360,145.600 283.123 C 165.867 278.464,176.400 262.486,176.400 236.400 C 176.400 223.512,174.108 213.692,169.326 206.092 C 168.597 204.933,168.000 203.720,168.000 203.396 C 168.000 203.072,167.460 202.291,166.800 201.660 C 166.140 201.029,165.600 200.312,165.600 200.066 C 165.600 199.820,165.105 199.302,164.500 198.914 C 163.895 198.527,163.200 198.028,162.956 197.805 C 160.986 196.009,160.046 195.287,159.885 195.448 C 159.782 195.552,158.820 195.125,157.748 194.500 C 153.396 191.961,149.053 190.351,143.908 189.369 C 141.869 188.980,140.080 188.481,139.932 188.260 C 139.785 188.038,138.707 187.875,137.536 187.896 C 136.307 187.919,135.282 187.738,135.110 187.468 C 134.887 187.117,134.811 187.122,134.806 187.487 C 134.803 187.756,134.575 187.906,134.300 187.821 C 132.951 187.405,128.024 187.237,127.800 187.599 M137.800 209.278 C 148.597 212.978,153.668 230.806,149.181 249.293 C 144.275 269.511,117.726 269.881,112.831 249.800 C 112.563 248.700,112.138 246.990,111.886 246.000 C 110.199 239.374,111.735 224.159,114.706 218.055 C 118.789 209.668,128.343 206.037,137.800 209.278 M251.600 271.800 C 251.600 276.090,251.652 276.400,252.378 276.400 C 253.023 276.400,253.177 276.074,253.278 274.500 L 253.400 272.600 255.200 272.600 L 257.000 272.600 257.122 274.500 C 257.223 276.074,257.377 276.400,258.022 276.400 C 258.748 276.400,258.800 276.090,258.800 271.800 C 258.800 267.512,258.747 267.200,258.023 267.200 C 257.395 267.200,257.222 267.526,257.123 268.900 L 257.000 270.600 255.200 270.600 L 253.400 270.600 253.277 268.900 C 253.178 267.526,253.005 267.200,252.377 267.200 C 251.653 267.200,251.600 267.512,251.600 271.800 M262.684 267.449 C 262.528 267.605,262.400 269.683,262.400 272.067 L 262.400 276.400 265.033 276.400 C 267.884 276.400,268.549 275.583,266.010 275.200 C 263.592 274.836,263.286 272.603,265.591 272.142 C 267.159 271.828,267.199 270.800,265.643 270.800 C 264.349 270.800,263.716 269.824,264.442 268.949 C 264.693 268.647,265.521 268.400,266.282 268.400 C 267.211 268.400,267.612 268.235,267.502 267.900 C 267.322 267.356,263.166 266.968,262.684 267.449 M275.608 267.714 C 273.284 268.890,272.797 273.258,274.769 275.231 C 276.545 277.007,280.000 276.849,280.000 274.992 C 280.000 274.914,279.411 274.946,278.691 275.063 C 276.669 275.391,275.400 274.163,275.400 271.877 C 275.400 269.520,276.379 268.400,278.438 268.400 C 280.048 268.400,280.816 267.845,279.765 267.442 C 278.727 267.044,276.666 267.178,275.608 267.714 M285.014 267.577 C 284.793 267.935,283.757 271.000,282.607 274.700 C 281.968 276.756,283.637 277.407,284.400 275.400 C 285.039 273.721,289.200 274.265,289.200 276.029 C 289.200 276.233,289.560 276.400,290.000 276.400 C 290.440 276.400,290.801 276.265,290.802 276.100 C 290.808 275.305,288.193 267.763,287.823 267.506 C 287.215 267.084,285.289 267.132,285.014 267.577 M293.200 271.745 C 293.200 276.133,293.246 276.400,294.000 276.400 C 294.635 276.400,294.801 276.131,294.806 275.100 C 294.820 272.201,296.255 272.116,297.715 274.928 C 298.267 275.993,298.740 276.400,299.423 276.400 L 300.367 276.400 299.120 274.394 L 297.873 272.387 298.736 271.468 C 300.787 269.285,299.605 267.605,295.804 267.299 L 293.200 267.090 293.200 271.745 M307.930 267.875 C 305.218 269.583,305.380 274.642,308.189 275.922 C 311.354 277.364,314.000 276.301,314.000 273.586 L 314.000 271.600 312.200 271.600 C 310.358 271.600,309.766 272.141,311.198 272.515 C 313.374 273.084,312.222 275.488,310.007 275.002 C 306.203 274.166,307.474 268.400,311.462 268.400 C 312.727 268.400,313.217 268.250,313.102 267.900 C 312.840 267.104,309.183 267.086,307.930 267.875 M317.200 270.984 C 317.200 276.205,319.940 278.250,323.346 275.571 C 324.793 274.433,325.012 267.200,323.600 267.200 C 322.864 267.200,322.800 267.467,322.800 270.538 C 322.800 273.264,322.666 273.997,322.069 274.538 C 320.070 276.346,318.800 274.765,318.800 270.469 C 318.800 267.467,318.735 267.200,318.000 267.200 C 317.256 267.200,317.200 267.467,317.200 270.984 M327.200 267.586 C 327.200 267.799,327.830 269.119,328.600 270.519 C 329.569 272.281,330.000 273.580,330.000 274.733 C 330.000 276.133,330.128 276.400,330.800 276.400 C 331.486 276.400,331.600 276.133,331.600 274.533 C 331.600 273.159,331.962 272.008,332.971 270.171 C 333.726 268.799,334.236 267.569,334.105 267.438 C 333.506 266.840,332.750 267.329,332.000 268.800 C 331.551 269.680,331.010 270.400,330.797 270.400 C 330.584 270.400,329.956 269.680,329.400 268.800 C 328.480 267.343,327.200 266.637,327.200 267.586 M297.626 269.249 C 298.002 269.952,297.935 270.242,297.235 270.943 C 295.934 272.244,294.255 270.797,294.954 268.977 C 295.295 268.087,297.103 268.271,297.626 269.249 M287.343 269.500 C 288.122 272.268,288.081 272.764,287.051 273.023 C 285.566 273.396,285.078 272.909,285.337 271.313 C 285.689 269.143,286.927 268.023,287.343 269.500 " stroke="none" fill="#7ccb5c" fill-rule="evenodd"></path><path id="path1" d="M0.000 200.000 L 0.000 400.000 200.000 400.000 L 400.000 400.000 400.000 200.000 L 400.000 0.000 200.000 0.000 L 0.000 0.000 0.000 200.000 M196.017 111.893 C 201.912 112.254,201.698 112.133,208.084 118.719 C 211.842 122.593,214.791 126.655,217.683 131.936 C 219.303 134.893,219.756 135.050,219.919 132.707 C 220.242 128.055,231.200 129.401,231.200 134.093 C 231.200 137.032,229.047 138.420,224.620 138.336 C 220.411 138.256,219.903 139.301,223.418 140.808 C 227.081 142.378,238.221 152.490,239.274 155.200 C 241.099 159.897,241.968 187.471,240.384 190.430 C 239.945 191.249,240.397 191.685,242.432 192.405 C 245.739 193.575,245.801 192.872,241.437 203.799 C 239.284 209.190,237.448 213.600,237.357 213.600 C 237.266 213.600,236.428 213.260,235.496 212.844 C 219.242 205.600,205.400 205.947,205.400 213.600 C 205.400 217.127,206.973 218.482,216.400 223.071 C 219.150 224.410,223.361 226.458,225.757 227.623 C 242.825 235.921,249.075 248.278,243.955 263.600 C 243.551 264.810,243.215 265.927,243.210 266.083 C 243.204 266.239,244.595 266.419,246.300 266.483 C 249.330 266.597,249.403 266.624,249.524 267.671 C 249.629 268.584,249.482 268.761,248.524 268.871 L 247.400 269.000 247.286 272.900 L 247.171 276.800 245.786 276.800 L 244.400 276.800 244.400 273.280 C 244.400 268.043,242.944 267.242,240.253 270.997 C 233.133 280.934,219.241 285.807,201.930 284.438 C 194.610 283.860,188.425 282.685,185.000 281.222 C 184.560 281.034,183.570 280.648,182.800 280.363 C 182.030 280.078,180.860 279.549,180.200 279.188 L 179.000 278.532 178.894 267.266 C 178.776 254.763,178.630 255.358,181.462 256.763 C 184.329 258.187,186.590 259.063,190.600 260.305 C 206.986 265.379,218.086 264.372,219.336 257.700 C 220.160 253.306,217.208 250.812,204.400 245.084 C 187.022 237.312,181.357 231.277,179.599 218.664 C 179.040 214.653,179.569 208.969,180.818 205.551 C 181.201 204.504,181.413 203.547,181.290 203.424 C 180.907 203.040,168.800 203.177,168.800 203.565 C 168.800 203.766,169.516 205.171,170.390 206.688 C 171.265 208.205,172.364 210.425,172.833 211.623 C 173.302 212.820,173.826 214.160,173.997 214.600 C 174.273 215.308,174.730 216.895,175.379 219.400 C 177.701 228.353,177.521 245.011,175.000 254.600 C 170.836 270.441,159.721 281.207,144.600 284.047 C 115.571 289.497,93.324 278.486,87.126 255.600 C 82.567 238.764,84.793 216.224,92.028 205.970 C 92.708 205.007,92.714 204.826,92.121 203.170 C 91.321 200.934,90.622 186.428,90.609 171.800 C 90.600 161.102,90.963 158.040,92.630 154.760 C 94.177 151.717,106.455 140.800,108.331 140.800 C 109.108 140.800,110.400 139.637,110.400 138.938 C 110.400 138.532,109.611 138.400,107.180 138.400 C 97.954 138.400,97.593 130.736,106.790 130.106 C 110.679 129.839,111.598 130.260,111.606 132.314 C 111.618 135.112,112.184 135.066,113.804 132.136 C 117.199 125.996,119.782 122.535,124.551 117.734 C 130.199 112.048,130.267 112.014,136.126 111.953 C 138.587 111.928,141.770 111.768,143.200 111.599 C 146.353 111.225,188.985 111.463,196.017 111.893 M152.600 113.623 C 148.200 113.774,141.990 114.132,138.800 114.419 C 135.610 114.705,132.124 114.953,131.053 114.970 C 128.418 115.011,124.547 119.626,118.068 130.456 C 115.372 134.961,115.337 134.843,119.300 134.612 C 135.411 133.674,143.824 133.530,171.000 133.724 C 187.280 133.841,203.930 134.112,208.000 134.327 C 216.579 134.779,216.122 134.920,214.651 132.268 C 209.375 122.754,203.198 115.049,200.784 114.969 C 199.803 114.937,196.930 114.702,194.400 114.447 C 183.679 113.367,168.669 113.071,152.600 113.623 M83.997 190.300 C 83.994 244.854,83.901 249.087,82.582 254.800 C 81.697 258.633,81.421 259.665,80.714 261.800 C 74.161 281.578,55.149 290.214,29.300 285.154 L 27.200 284.743 27.200 272.728 L 27.200 260.712 28.500 260.908 C 29.215 261.016,31.780 261.403,34.200 261.768 C 44.016 263.251,49.460 260.371,51.536 252.600 C 52.704 248.227,52.800 243.519,52.800 190.384 L 52.800 136.000 68.400 136.000 L 84.000 136.000 83.997 190.300 M276.957 140.233 C 277.520 141.700,276.960 169.546,276.154 180.100 C 275.825 184.418,276.210 184.584,278.857 181.264 C 284.331 174.399,291.659 171.187,301.800 171.207 C 316.510 171.237,326.894 178.109,331.103 190.600 C 332.991 196.201,333.000 196.386,333.000 229.800 L 333.000 261.400 317.600 261.400 L 302.200 261.400 301.982 233.400 C 301.756 204.435,301.800 205.203,300.147 201.400 C 296.140 192.183,282.850 194.200,279.409 204.546 C 277.496 210.295,277.480 210.528,277.234 236.600 L 277.000 261.400 261.700 261.505 L 246.400 261.610 246.400 200.871 C 246.400 167.465,246.520 140.013,246.667 139.867 C 247.315 139.218,276.704 139.573,276.957 140.233 M102.200 152.431 C 95.474 153.907,95.337 154.022,94.974 158.494 C 94.497 164.373,95.850 165.230,108.000 166.754 C 115.928 167.749,119.073 167.662,117.213 166.501 C 115.812 165.626,115.008 163.621,115.757 162.871 C 116.330 162.299,116.426 162.354,116.819 163.483 C 117.305 164.876,119.057 165.826,120.371 165.409 C 121.601 165.019,121.434 166.165,120.177 166.737 C 118.360 167.566,119.546 168.000,123.626 168.000 L 127.605 168.000 124.400 161.600 L 121.195 155.200 119.098 155.200 C 116.425 155.200,111.890 154.324,107.805 153.020 C 104.320 151.907,104.501 151.926,102.200 152.431 M223.800 153.043 C 219.158 154.480,215.478 155.200,212.776 155.200 L 210.405 155.200 207.403 161.195 C 203.713 168.562,203.672 168.006,207.900 167.972 C 212.292 167.937,213.474 167.576,211.660 166.825 C 209.930 166.108,209.977 165.182,211.730 165.466 C 213.117 165.691,215.200 163.953,215.200 162.569 C 215.200 162.256,215.380 162.000,215.600 162.000 C 216.357 162.000,216.038 165.008,215.184 165.925 C 214.736 166.406,214.196 166.800,213.984 166.800 C 213.773 166.800,213.600 166.966,213.600 167.169 C 213.600 168.134,228.339 166.454,233.295 164.924 C 236.585 163.908,237.567 161.186,236.422 156.251 C 235.933 154.145,235.788 154.046,231.592 152.956 C 227.216 151.819,227.775 151.813,223.800 153.043 M137.159 153.382 C 133.327 154.479,132.800 155.208,132.800 159.411 C 132.800 168.970,139.030 172.440,155.115 171.840 C 163.104 171.543,163.535 171.260,164.180 165.900 C 164.514 163.132,163.786 162.684,163.378 165.406 C 162.905 168.562,162.310 168.753,153.384 168.626 C 145.559 168.515,142.079 168.207,141.420 167.568 C 141.211 167.366,140.645 167.200,140.163 167.200 C 139.680 167.200,139.183 166.933,139.058 166.607 C 138.933 166.280,138.598 166.101,138.315 166.207 C 137.473 166.524,134.905 163.843,134.431 162.150 C 133.130 157.513,133.453 155.393,135.397 155.803 C 137.557 156.259,161.045 156.689,161.453 156.280 C 162.077 155.657,162.870 156.071,163.404 157.300 L 163.969 158.600 163.984 157.246 C 164.010 154.987,162.460 153.914,158.600 153.519 C 152.511 152.895,139.157 152.809,137.159 153.382 M177.000 153.218 C 175.900 153.390,173.882 153.546,172.516 153.565 C 169.971 153.601,169.030 154.124,167.953 156.100 C 167.545 156.849,168.150 157.128,168.601 156.399 C 168.737 156.179,169.512 156.096,170.324 156.216 C 172.424 156.525,184.800 156.661,184.800 156.375 C 184.800 156.243,187.185 156.106,190.100 156.068 C 193.015 156.031,195.895 155.896,196.500 155.768 L 197.600 155.536 197.600 158.381 C 197.600 162.248,195.744 166.000,193.831 166.000 C 193.538 166.000,193.074 166.270,192.800 166.600 C 192.526 166.930,191.910 167.200,191.431 167.200 C 190.952 167.200,190.374 167.386,190.147 167.613 C 189.920 167.840,188.804 168.065,187.667 168.113 C 186.531 168.161,185.600 168.315,185.600 168.456 C 185.600 168.966,171.170 168.854,169.998 168.335 C 168.514 167.678,168.007 165.881,167.972 161.154 C 167.953 158.684,167.826 157.674,167.600 158.200 C 166.974 159.657,167.181 166.442,167.918 168.599 C 168.838 171.296,169.598 171.593,176.329 171.880 C 188.679 172.409,195.655 170.257,197.666 165.301 C 199.359 161.127,199.189 155.735,197.326 154.515 C 194.947 152.956,183.409 152.220,177.000 153.218 M233.600 159.111 C 233.600 164.210,226.965 167.291,223.300 163.895 C 221.697 162.409,222.109 161.129,223.827 162.255 C 227.022 164.348,232.000 161.302,232.000 157.253 C 232.000 156.637,232.117 156.016,232.261 155.873 C 232.700 155.433,233.600 157.608,233.600 159.111 M99.746 158.148 C 100.447 161.962,103.991 163.949,107.402 162.440 C 109.756 161.399,110.015 161.581,108.675 163.337 C 105.002 168.153,97.350 164.180,98.213 157.904 C 98.547 155.474,99.276 155.590,99.746 158.148 M143.366 188.456 C 143.249 188.645,143.695 188.800,144.358 188.800 C 145.020 188.800,145.976 188.961,146.481 189.158 C 146.987 189.355,148.210 189.745,149.200 190.023 C 151.297 190.613,157.319 193.377,158.862 194.457 C 160.185 195.383,166.159 195.437,177.000 194.619 C 186.522 193.901,187.135 193.689,189.659 190.240 C 191.371 187.899,191.288 187.843,186.700 188.243 C 182.093 188.644,149.971 188.733,146.089 188.356 C 144.708 188.221,143.483 188.266,143.366 188.456 M125.800 209.370 C 116.219 212.158,112.015 220.403,112.015 236.400 C 112.015 253.330,116.893 261.702,127.873 263.617 C 135.199 264.895,143.307 261.350,146.187 255.608 C 151.214 245.586,151.214 227.214,146.187 217.193 C 142.937 210.713,133.555 207.113,125.800 209.370 M253.600 268.400 C 253.795 270.152,253.837 270.200,255.200 270.200 C 256.563 270.200,256.605 270.152,256.800 268.400 C 256.988 266.711,257.074 266.600,258.200 266.600 L 259.400 266.600 259.512 271.700 L 259.624 276.800 258.234 276.800 C 256.859 276.800,256.842 276.779,256.722 274.900 C 256.601 273.018,256.586 273.000,255.200 273.000 C 253.814 273.000,253.799 273.018,253.678 274.900 C 253.558 276.775,253.538 276.800,252.178 276.800 L 250.800 276.800 250.800 272.233 C 250.800 266.821,250.937 266.314,252.351 266.478 C 253.274 266.585,253.424 266.817,253.600 268.400 M267.924 267.674 C 268.037 268.656,267.917 268.760,266.527 268.874 C 264.422 269.048,264.068 270.400,266.128 270.400 C 266.991 270.400,267.601 270.626,267.745 271.000 C 268.172 272.113,267.566 272.800,266.157 272.800 C 264.080 272.800,264.209 274.303,266.300 274.476 C 267.609 274.584,267.816 274.743,267.928 275.717 L 268.056 276.835 264.928 276.717 L 261.800 276.600 261.686 272.057 C 261.546 266.446,261.621 266.326,265.163 266.483 C 267.693 266.595,267.805 266.644,267.924 267.674 M280.167 266.926 C 281.464 267.875,280.798 269.014,279.012 268.904 C 276.908 268.773,276.000 269.641,276.000 271.782 C 276.000 273.883,276.532 274.400,278.693 274.400 C 280.573 274.400,281.276 275.145,280.396 276.205 C 278.921 277.983,274.587 276.722,273.250 274.126 C 271.096 269.945,276.543 264.276,280.167 266.926 M288.315 266.900 C 288.712 267.380,290.795 273.423,291.348 275.700 C 291.696 277.131,289.144 277.390,288.400 276.000 C 288.086 275.413,287.562 275.200,286.433 275.200 C 285.230 275.200,284.848 275.375,284.684 276.000 C 284.432 276.966,281.600 277.198,281.600 276.253 C 281.600 275.565,283.870 268.509,284.481 267.300 C 284.997 266.278,287.579 266.009,288.315 266.900 M298.951 267.331 C 300.172 268.131,300.446 270.732,299.400 271.600 C 298.592 272.270,298.621 272.413,299.972 274.424 C 301.334 276.453,301.248 276.800,299.385 276.800 C 298.191 276.800,297.912 276.596,297.200 275.200 C 296.180 273.201,295.684 273.171,295.524 275.100 C 295.411 276.469,295.287 276.611,294.100 276.725 L 292.800 276.851 292.800 271.892 C 292.800 269.165,292.935 266.796,293.100 266.628 C 293.617 266.103,297.852 266.611,298.951 267.331 M313.317 266.900 C 314.693 267.926,313.741 269.270,311.840 268.985 C 309.802 268.680,308.640 269.696,308.640 271.783 C 308.640 273.428,309.386 274.400,310.649 274.400 C 311.900 274.400,311.870 273.451,310.600 272.873 C 308.656 271.987,309.871 270.689,312.470 270.876 L 314.200 271.000 314.200 273.800 L 314.200 276.600 311.147 276.716 C 306.267 276.901,303.655 272.541,306.262 268.562 C 307.473 266.713,311.725 265.712,313.317 266.900 M319.117 269.980 C 319.239 273.488,319.592 274.400,320.825 274.400 C 321.932 274.400,322.182 273.700,322.400 270.000 C 322.611 266.418,323.439 265.361,324.775 266.970 C 325.730 268.121,325.187 274.538,324.030 275.768 C 322.276 277.635,318.043 277.137,316.865 274.926 C 316.364 273.985,316.214 267.119,316.685 266.648 C 318.036 265.297,319.001 266.617,319.117 269.980 M329.754 268.100 C 330.517 269.555,331.200 270.056,331.200 269.162 C 331.200 268.184,332.882 266.400,333.804 266.400 C 335.356 266.400,335.326 267.037,333.621 270.162 C 332.385 272.427,332.000 273.574,332.000 274.992 C 332.000 278.123,329.518 277.609,329.142 274.400 C 328.986 273.066,328.381 271.289,327.605 269.886 C 326.161 267.275,326.241 266.282,327.881 266.473 C 328.665 266.565,329.185 267.016,329.754 268.100 M295.867 269.067 C 295.373 269.560,295.595 270.800,296.176 270.800 C 296.934 270.800,297.262 270.227,296.959 269.436 C 296.700 268.761,296.305 268.628,295.867 269.067 M286.039 271.073 C 285.734 271.744,285.700 272.260,285.946 272.506 C 286.520 273.080,287.200 272.481,287.200 271.400 C 287.200 270.025,286.595 269.855,286.039 271.073 " stroke="none" fill="#fbfbfb" fill-rule="evenodd"></path><path id="path2" d="M152.400 111.660 C 136.185 112.176,129.273 112.899,130.537 113.948 C 131.207 114.504,130.807 114.515,144.400 113.557 C 148.883 113.242,158.578 113.006,167.200 113.004 C 180.497 113.000,185.519 113.205,198.017 114.261 C 200.140 114.441,203.119 113.518,201.549 113.167 C 198.254 112.429,170.102 110.994,164.200 111.263 C 163.320 111.303,158.010 111.482,152.400 111.660 M123.738 119.300 C 119.998 123.166,117.251 126.942,114.498 132.000 C 112.519 135.638,111.473 136.029,111.272 133.208 C 111.098 130.749,110.693 130.400,108.022 130.400 C 102.167 130.400,99.022 133.483,101.921 136.382 C 103.373 137.834,106.016 138.343,107.399 137.437 C 108.604 136.648,108.800 136.643,108.800 137.400 C 108.800 137.730,109.115 138.003,109.500 138.006 C 111.141 138.020,111.399 138.663,110.327 140.068 C 108.575 142.363,106.788 144.121,106.500 143.833 C 106.348 143.681,106.465 143.407,106.760 143.225 C 107.056 143.042,107.230 142.690,107.148 142.443 C 106.857 141.572,102.574 144.963,97.779 149.859 L 92.959 154.782 92.089 158.291 C 89.964 166.858,90.163 171.066,92.700 171.178 C 92.975 171.190,93.200 171.401,93.200 171.647 C 93.200 171.892,92.885 172.004,92.500 171.895 C 90.624 171.365,90.598 171.375,90.676 172.600 C 90.718 173.260,90.864 177.040,91.001 181.000 C 91.309 189.911,91.288 189.815,93.003 190.628 C 93.771 190.993,94.400 191.451,94.400 191.646 C 94.400 192.127,93.706 192.095,93.400 191.600 C 91.420 188.396,90.709 196.874,92.469 202.700 C 92.991 204.428,93.244 204.356,95.057 201.966 C 97.296 199.013,102.716 194.765,106.725 192.820 C 108.636 191.893,110.513 190.969,110.895 190.767 C 111.277 190.565,111.941 190.400,112.371 190.400 C 112.801 190.400,113.249 190.244,113.367 190.054 C 113.484 189.864,114.260 189.599,115.090 189.466 C 115.921 189.333,117.950 188.949,119.600 188.613 C 121.250 188.276,123.714 188.001,125.076 188.000 C 128.209 188.000,128.708 187.401,125.681 187.275 C 123.599 187.188,122.263 186.707,123.065 186.335 C 123.972 185.914,130.000 186.487,130.000 186.995 C 130.000 187.366,130.733 187.570,132.401 187.664 C 134.950 187.808,135.131 187.649,134.278 186.000 C 133.809 185.095,132.753 182.455,129.106 173.078 C 127.188 168.145,127.823 168.458,118.800 167.990 C 95.593 166.785,92.068 164.907,94.798 155.200 C 95.554 152.514,103.948 151.027,108.652 152.746 C 110.985 153.599,114.467 154.270,118.795 154.701 L 121.791 155.000 125.641 162.676 C 129.143 169.658,130.475 172.692,132.899 179.200 C 133.349 180.410,134.428 182.903,135.297 184.739 L 136.876 188.079 138.338 187.830 C 140.393 187.481,140.096 187.475,149.600 188.047 C 163.080 188.858,187.720 188.450,190.539 187.368 C 192.511 186.611,189.781 191.877,187.389 193.444 C 185.648 194.585,179.958 195.170,170.400 195.192 C 165.307 195.203,161.140 195.381,160.800 195.600 C 160.470 195.813,160.380 195.991,160.600 195.996 C 160.820 196.000,161.577 196.544,162.281 197.205 C 162.986 197.865,164.021 198.580,164.581 198.793 C 165.142 199.006,165.600 199.480,165.600 199.847 C 165.600 200.213,166.138 201.028,166.796 201.657 L 167.993 202.800 174.943 202.800 L 181.894 202.800 182.947 201.209 C 184.339 199.105,184.436 199.200,180.920 199.200 C 176.845 199.200,177.542 198.477,181.769 198.319 C 183.511 198.253,184.995 198.020,185.068 197.800 C 185.154 197.541,183.015 197.448,179.000 197.536 C 174.710 197.630,172.800 197.538,172.800 197.236 C 172.800 196.957,173.980 196.800,176.079 196.800 C 187.605 196.800,191.497 194.543,196.121 185.178 C 197.374 182.639,198.400 180.416,198.400 180.239 C 198.400 179.195,202.962 168.633,206.125 162.355 L 209.830 155.000 214.015 154.550 C 218.670 154.049,219.610 153.858,222.827 152.760 C 226.721 151.430,234.422 152.218,236.245 154.132 C 236.942 154.864,237.586 160.617,237.149 162.201 C 236.160 165.782,228.908 167.412,210.432 168.206 C 203.630 168.498,204.413 167.726,200.668 177.832 C 198.851 182.737,196.769 187.304,195.440 189.300 C 194.539 190.653,194.878 190.689,198.173 189.591 C 202.616 188.110,203.048 188.000,204.428 187.994 C 205.461 187.989,205.652 187.892,205.200 187.600 C 204.870 187.387,203.925 187.209,203.100 187.206 C 202.275 187.203,201.600 187.008,201.600 186.773 C 201.600 186.485,202.814 186.412,205.300 186.550 C 207.335 186.663,212.510 186.942,216.800 187.170 C 221.090 187.398,225.140 187.633,225.800 187.692 C 226.648 187.768,227.000 187.624,227.000 187.200 C 227.000 186.689,225.739 186.584,218.481 186.492 C 213.047 186.423,210.050 186.242,210.205 185.992 C 210.576 185.392,228.362 185.486,230.659 186.100 C 232.522 186.598,234.074 187.767,235.205 189.524 C 235.825 190.487,238.868 190.920,239.589 190.148 C 240.036 189.669,240.800 180.460,240.800 175.561 L 240.800 171.536 239.600 171.800 C 238.845 171.966,238.400 171.903,238.400 171.632 C 238.400 171.394,238.604 171.200,238.853 171.200 C 241.305 171.200,241.458 165.867,239.258 157.091 C 238.429 153.782,226.685 141.973,224.256 142.006 C 223.977 142.010,224.010 142.145,224.339 142.354 C 224.636 142.542,224.816 142.962,224.739 143.287 C 224.647 143.680,223.945 143.156,222.654 141.730 C 220.415 139.257,220.128 138.261,221.600 138.072 C 222.150 138.001,222.825 137.652,223.100 137.295 C 223.557 136.702,223.646 136.709,224.135 137.379 C 225.307 138.981,230.003 137.235,230.568 134.987 C 231.222 132.378,228.376 130.463,223.780 130.422 C 221.022 130.397,220.400 130.806,220.400 132.647 C 220.400 136.042,219.303 135.989,217.383 132.500 C 214.332 126.958,210.826 122.167,207.354 118.800 C 205.426 116.930,204.327 116.030,204.912 116.800 C 209.663 123.055,216.400 133.549,216.400 134.695 C 216.400 135.147,215.687 135.222,212.700 135.084 C 190.380 134.051,181.537 133.812,165.600 133.811 C 155.370 133.810,141.510 134.058,134.800 134.362 C 128.090 134.666,120.935 134.991,118.900 135.085 C 116.199 135.209,115.200 135.126,115.200 134.776 C 115.200 133.671,122.552 122.072,125.580 118.400 C 128.929 114.338,128.187 114.701,123.738 119.300 M122.569 153.293 C 122.921 154.004,123.406 154.223,124.809 154.305 C 128.001 154.491,132.000 155.261,132.000 155.690 C 132.000 156.096,129.731 155.994,124.500 155.355 C 122.806 155.148,122.400 154.954,122.400 154.349 C 122.400 153.937,122.220 153.600,122.000 153.600 C 121.780 153.600,121.600 153.210,121.600 152.733 C 121.600 151.767,121.897 151.938,122.569 153.293 M159.784 153.227 C 163.986 153.958,164.486 154.765,164.718 161.186 C 164.919 166.760,164.515 169.237,163.114 171.019 L 162.342 172.000 152.471 172.004 C 140.671 172.009,138.773 171.598,135.568 168.346 C 131.564 164.282,130.956 155.382,134.565 153.653 C 137.194 152.392,153.419 152.118,159.784 153.227 M196.000 153.205 C 196.770 153.483,197.810 154.082,198.311 154.535 C 199.166 155.309,199.391 155.330,202.018 154.880 C 203.556 154.616,205.712 154.400,206.807 154.400 C 208.312 154.400,208.800 154.253,208.800 153.800 C 208.800 153.470,208.993 153.200,209.228 153.200 C 209.463 153.200,209.598 153.605,209.528 154.100 C 209.386 155.097,208.252 155.372,202.300 155.852 L 199.200 156.103 199.200 159.494 C 199.200 169.267,195.009 171.947,179.674 171.979 C 166.552 172.007,166.968 172.331,167.055 162.163 C 167.123 154.190,167.288 153.907,172.296 153.218 C 178.759 152.329,193.550 152.321,196.000 153.205 M196.267 156.267 C 196.120 156.413,196.000 157.979,196.000 159.747 C 196.000 163.398,196.444 163.388,197.194 159.720 C 197.800 156.755,197.372 155.161,196.267 156.267 M134.400 158.340 C 134.400 160.340,135.008 162.696,135.706 163.400 C 135.968 163.664,136.017 162.825,135.851 160.924 C 135.712 159.342,135.760 157.948,135.958 157.826 C 136.541 157.465,136.800 158.681,136.800 161.784 C 136.800 163.879,136.968 164.841,137.395 165.196 C 138.181 165.848,138.471 165.121,138.315 162.891 C 138.252 161.982,138.380 161.228,138.600 161.215 C 138.820 161.202,139.055 162.222,139.123 163.482 C 139.271 166.257,140.088 167.644,140.400 165.649 C 140.679 163.863,141.375 163.896,141.524 165.702 C 141.638 167.073,141.733 167.182,142.624 166.958 C 143.219 166.809,143.600 166.886,143.600 167.157 C 143.600 167.400,143.875 167.600,144.212 167.600 C 144.735 167.600,144.807 166.838,144.712 162.300 C 144.619 157.905,144.498 157.000,144.000 157.000 C 143.502 157.000,143.400 157.766,143.400 161.496 C 143.400 167.664,142.658 167.593,142.400 161.400 C 142.237 157.489,142.089 156.600,141.600 156.600 C 141.120 156.600,141.000 157.200,141.000 159.600 C 141.000 163.602,140.256 163.680,140.000 159.705 C 139.772 156.162,138.600 154.978,138.600 158.290 C 138.600 160.627,137.828 160.635,137.678 158.300 C 137.557 156.405,137.041 155.919,136.125 156.835 C 135.812 157.148,135.615 157.148,135.422 156.835 C 134.827 155.874,134.400 156.503,134.400 158.340 M189.900 156.632 C 189.735 156.798,189.600 157.253,189.600 157.643 C 189.600 158.808,188.828 158.925,188.409 157.824 C 187.793 156.202,187.201 156.629,187.194 158.700 C 187.187 160.765,186.703 162.014,186.215 161.224 C 186.058 160.971,186.055 159.855,186.208 158.744 C 186.459 156.916,186.415 156.738,185.743 156.866 C 185.120 156.985,184.968 157.493,184.800 160.004 C 184.545 163.830,183.800 163.746,183.800 159.891 C 183.800 155.037,182.658 155.863,182.400 160.904 C 182.137 166.040,181.400 166.033,181.400 160.894 C 181.400 157.699,181.292 157.000,180.800 157.000 C 180.311 157.000,180.163 157.889,180.000 161.800 C 179.737 168.102,179.000 168.026,179.000 161.696 C 179.000 157.788,178.899 157.000,178.400 157.000 C 177.904 157.000,177.765 157.989,177.600 162.701 C 177.408 168.175,177.743 169.874,178.586 167.700 C 178.844 167.033,178.882 167.033,179.373 167.700 C 180.160 168.769,180.736 168.539,180.875 167.100 C 181.032 165.468,181.724 165.407,182.000 167.000 C 182.334 168.927,182.983 168.385,183.200 166.000 C 183.449 163.261,184.233 163.299,184.110 166.044 C 183.957 169.492,185.340 168.606,185.600 165.090 C 185.860 161.583,186.600 161.598,186.600 165.110 C 186.600 169.794,187.749 168.799,188.000 163.896 C 188.113 161.682,188.373 159.998,188.600 160.004 C 188.847 160.011,188.944 161.387,188.854 163.608 C 188.713 167.063,189.447 168.706,190.225 166.678 C 190.543 165.850,190.233 156.297,189.900 156.632 M191.773 156.844 C 191.264 157.668,191.042 166.400,191.530 166.400 C 192.424 166.400,192.800 164.756,192.800 160.850 C 192.800 157.123,192.448 155.751,191.773 156.844 M193.867 156.667 C 193.337 157.196,193.561 165.280,194.100 165.101 C 195.118 164.763,195.662 156.400,194.667 156.400 C 194.373 156.400,194.013 156.520,193.867 156.667 M145.600 161.374 C 145.600 165.873,145.982 168.000,146.790 168.000 C 147.323 168.000,147.340 159.220,146.810 157.826 C 145.989 155.667,145.600 156.808,145.600 161.374 M148.239 157.094 C 147.666 157.667,147.989 167.910,148.587 168.140 C 149.562 168.514,149.685 167.770,149.539 162.380 C 149.410 157.573,149.084 156.249,148.239 157.094 M150.356 156.976 C 149.729 157.596,150.658 168.202,151.351 168.335 C 152.054 168.469,152.092 168.209,151.951 164.139 C 151.859 161.492,151.956 159.722,152.200 159.600 C 152.450 159.475,152.675 161.129,152.800 164.000 C 152.962 167.733,153.113 168.600,153.600 168.600 C 154.087 168.600,154.205 167.921,154.227 165.000 C 154.260 160.690,154.300 160.427,154.800 161.200 C 155.013 161.530,155.191 163.298,155.194 165.129 C 155.199 168.084,155.279 168.443,155.900 168.320 C 156.650 168.172,156.700 165.634,156.071 159.600 C 155.767 156.685,154.674 155.777,154.626 158.400 C 154.591 160.262,153.835 160.579,153.671 158.800 C 153.496 156.889,152.926 156.417,152.416 157.759 C 152.005 158.838,151.200 158.865,151.200 157.800 C 151.200 157.239,150.641 156.694,150.356 156.976 M157.047 157.125 C 156.835 157.467,156.934 159.128,157.552 165.600 C 157.845 168.671,159.000 169.468,159.000 166.600 C 159.000 164.416,159.769 164.166,159.923 166.300 C 160.061 168.202,160.625 168.511,161.200 167.000 C 161.409 166.450,161.835 166.000,162.147 166.000 C 163.184 166.000,163.760 158.704,162.839 157.249 C 161.960 155.862,161.511 157.341,161.655 161.151 C 161.742 163.467,161.641 165.080,161.400 165.200 C 161.152 165.324,160.924 163.805,160.800 161.200 C 160.536 155.660,159.400 154.899,159.400 160.261 C 159.400 165.511,158.516 165.005,158.302 159.632 C 158.208 157.271,157.648 156.152,157.047 157.125 M168.650 158.050 C 168.156 160.522,168.590 166.800,169.256 166.800 C 169.445 166.800,169.603 165.135,169.606 163.100 C 169.609 161.065,169.777 159.140,169.978 158.822 C 170.363 158.213,169.844 156.800,169.236 156.800 C 169.051 156.800,168.788 157.363,168.650 158.050 M171.127 157.542 C 170.260 158.784,170.390 167.741,171.278 167.916 C 171.884 168.036,171.969 167.471,172.078 162.586 C 172.203 157.003,172.054 156.215,171.127 157.542 M173.368 157.252 C 172.983 157.875,172.624 166.964,172.951 167.817 C 173.752 169.905,174.400 167.473,174.400 162.375 C 174.400 157.637,174.088 156.087,173.368 157.252 M175.608 157.586 C 174.907 158.895,175.246 168.161,176.000 168.305 C 176.505 168.401,176.622 167.538,176.737 162.856 C 176.874 157.311,176.554 155.818,175.608 157.586 M98.700 157.828 C 95.776 160.801,103.758 166.659,107.165 164.041 L 108.129 163.299 105.397 163.325 L 102.666 163.350 100.958 161.465 C 100.019 160.428,99.195 159.117,99.126 158.551 C 99.057 157.986,98.865 157.661,98.700 157.828 M231.889 159.733 C 230.897 162.121,228.892 163.381,226.149 163.342 C 223.824 163.308,223.628 163.430,224.700 164.243 C 227.468 166.345,232.096 163.825,232.975 159.738 C 233.384 157.840,232.678 157.836,231.889 159.733 M116.406 164.638 C 116.397 165.318,117.778 166.402,118.631 166.384 C 119.221 166.372,119.120 166.218,118.200 165.726 C 117.540 165.373,116.868 164.885,116.706 164.642 C 116.495 164.325,116.411 164.324,116.406 164.638 M214.400 165.153 C 214.400 165.348,213.995 165.630,213.500 165.780 C 212.890 165.966,212.775 166.125,213.142 166.274 C 213.440 166.395,214.065 166.113,214.531 165.647 C 215.003 165.175,215.161 164.800,214.889 164.800 C 214.620 164.800,214.400 164.959,214.400 165.153 M121.600 186.000 C 122.330 186.472,123.092 186.435,113.132 186.401 C 104.166 186.369,104.101 186.387,105.020 188.587 C 105.889 190.666,104.572 193.600,102.771 193.600 C 101.770 193.600,101.798 193.439,103.000 192.236 C 105.681 189.555,103.004 186.310,99.506 188.000 C 97.768 188.839,96.800 189.013,96.800 188.486 C 96.800 188.003,99.216 186.653,101.000 186.139 C 102.998 185.564,120.739 185.444,121.600 186.000 M228.984 187.627 C 228.605 188.240,228.816 188.356,231.571 189.055 C 235.435 190.036,235.292 188.917,231.400 187.709 C 229.435 187.099,229.312 187.095,228.984 187.627 " stroke="none" fill="#373737" fill-rule="evenodd"></path><path id="path3" d="M143.400 111.600 C 140.027 111.973,148.674 111.986,156.600 111.619 L 162.600 111.342 154.200 111.338 C 149.580 111.336,144.720 111.454,143.400 111.600 M176.800 111.620 C 184.915 112.011,192.791 111.989,189.200 111.586 C 187.770 111.425,183.090 111.304,178.800 111.317 L 171.000 111.340 176.800 111.620 M130.400 112.449 C 127.115 113.758,117.964 124.614,113.804 132.136 C 112.184 135.066,111.618 135.112,111.606 132.314 C 111.598 130.260,110.679 129.839,106.790 130.106 C 97.593 130.736,97.954 138.400,107.180 138.400 C 109.611 138.400,110.400 138.532,110.400 138.938 C 110.400 139.637,109.108 140.800,108.331 140.800 C 106.455 140.800,94.177 151.717,92.630 154.760 C 91.814 156.366,90.725 161.137,90.567 163.800 L 90.425 166.200 90.803 164.200 C 91.011 163.100,91.577 160.535,92.061 158.500 L 92.941 154.801 97.770 149.868 C 102.573 144.964,106.857 141.571,107.148 142.443 C 107.230 142.690,107.056 143.042,106.760 143.225 C 106.465 143.407,106.348 143.681,106.500 143.833 C 106.788 144.121,108.575 142.363,110.327 140.068 C 111.399 138.663,111.141 138.020,109.500 138.006 C 109.115 138.003,108.800 137.730,108.800 137.400 C 108.800 136.643,108.604 136.648,107.399 137.437 C 106.016 138.343,103.373 137.834,101.921 136.382 C 99.022 133.483,102.167 130.400,108.022 130.400 C 110.693 130.400,111.098 130.749,111.272 133.208 C 111.473 136.029,112.519 135.638,114.498 132.000 C 117.330 126.797,120.035 123.120,123.914 119.200 C 127.702 115.373,128.322 115.075,125.580 118.400 C 122.598 122.016,115.200 133.668,115.200 134.749 C 115.200 135.276,120.454 135.297,124.200 134.785 C 126.021 134.535,125.322 134.486,121.300 134.581 C 115.061 134.729,115.274 135.121,118.601 129.598 C 124.360 120.040,128.741 114.688,130.555 114.996 C 131.240 115.112,132.700 115.046,133.800 114.850 L 135.800 114.494 133.349 114.447 C 131.761 114.417,130.731 114.199,130.424 113.828 C 129.914 113.215,130.069 113.176,136.000 112.429 L 138.600 112.101 135.000 112.076 C 133.020 112.062,130.950 112.230,130.400 112.449 M196.200 112.447 C 197.520 112.640,199.230 112.875,200.000 112.970 C 200.770 113.065,201.467 113.156,201.549 113.171 C 202.515 113.356,200.276 114.409,198.851 114.440 L 197.000 114.480 198.600 114.862 C 199.480 115.073,200.693 115.150,201.295 115.033 C 202.891 114.725,206.749 119.480,212.764 129.169 C 216.478 135.153,216.651 134.770,210.300 134.597 C 206.341 134.489,205.607 134.536,207.400 134.783 C 211.481 135.344,216.400 135.281,216.400 134.667 C 216.400 133.546,209.608 122.983,204.912 116.800 C 204.327 116.030,205.426 116.930,207.354 118.800 C 210.826 122.167,214.332 126.958,217.383 132.500 C 219.303 135.989,220.400 136.042,220.400 132.647 C 220.400 130.806,221.022 130.397,223.780 130.422 C 228.376 130.463,231.222 132.378,230.568 134.987 C 230.003 137.235,225.307 138.981,224.135 137.379 C 223.646 136.709,223.557 136.702,223.100 137.295 C 222.825 137.652,222.150 138.001,221.600 138.072 C 220.128 138.261,220.415 139.257,222.654 141.730 C 223.945 143.156,224.647 143.680,224.739 143.287 C 224.816 142.962,224.636 142.542,224.339 142.354 C 224.010 142.145,223.977 142.010,224.256 142.006 C 226.685 141.973,238.429 153.782,239.258 157.091 C 241.458 165.867,241.305 171.200,238.853 171.200 C 238.604 171.200,238.400 171.394,238.400 171.632 C 238.400 171.902,238.843 171.966,239.585 171.803 L 240.769 171.543 240.894 175.272 C 240.963 177.322,241.051 175.490,241.090 171.200 C 241.161 163.529,240.604 158.622,239.274 155.200 C 238.221 152.490,227.081 142.378,223.418 140.808 C 219.903 139.301,220.411 138.256,224.620 138.336 C 231.667 138.470,234.147 132.211,227.751 130.435 C 223.162 129.161,220.104 130.048,219.919 132.707 C 219.756 135.050,219.303 134.893,217.683 131.936 C 214.448 126.028,211.807 122.500,207.045 117.725 C 201.553 112.218,201.129 111.981,196.874 112.049 L 193.800 112.098 196.200 112.447 M150.800 113.172 C 149.150 113.297,156.440 113.400,167.000 113.400 C 177.560 113.400,184.940 113.287,183.400 113.150 C 179.954 112.842,154.923 112.859,150.800 113.172 M137.800 114.000 C 135.493 114.413,141.025 114.428,144.000 114.017 C 146.079 113.729,146.014 113.713,142.800 113.713 C 140.930 113.713,138.680 113.842,137.800 114.000 M189.600 114.017 C 190.810 114.184,192.880 114.316,194.200 114.310 L 196.600 114.300 194.800 113.980 C 193.810 113.803,191.740 113.671,190.200 113.686 L 187.400 113.713 189.600 114.017 M132.200 134.000 C 127.378 134.382,137.344 134.400,144.200 134.022 L 149.400 133.735 142.400 133.741 C 138.550 133.744,133.960 133.861,132.200 134.000 M187.000 134.022 C 189.860 134.180,194.450 134.301,197.200 134.292 L 202.200 134.276 198.800 133.978 C 196.930 133.814,192.340 133.692,188.600 133.707 L 181.800 133.735 187.000 134.022 M97.895 152.944 C 94.692 153.957,94.406 154.524,94.402 159.864 C 94.400 162.957,94.459 163.179,95.530 164.080 C 97.195 165.481,104.277 167.254,107.824 167.157 L 109.400 167.114 107.800 166.803 C 106.920 166.632,104.800 166.278,103.090 166.018 C 95.689 164.891,94.586 163.885,94.976 158.616 C 95.316 154.022,95.442 153.914,102.200 152.431 L 103.800 152.080 102.200 152.084 C 101.320 152.086,99.383 152.473,97.895 152.944 M108.000 153.051 C 111.836 154.312,116.422 155.200,119.098 155.200 L 121.195 155.200 124.400 161.600 L 127.605 168.000 125.102 168.074 L 122.600 168.148 124.692 168.295 C 127.160 168.468,127.432 168.765,129.139 173.158 C 134.580 187.164,134.663 187.341,135.898 187.523 C 136.703 187.642,136.694 187.574,135.641 185.523 C 135.041 184.356,133.977 181.915,133.275 180.100 C 132.574 178.285,131.435 175.349,130.745 173.576 C 130.055 171.802,127.758 166.897,125.641 162.676 L 121.791 155.000 118.795 154.701 C 114.467 154.270,110.985 153.599,108.652 152.746 C 107.530 152.336,106.249 152.015,105.806 152.032 C 105.363 152.050,106.350 152.509,108.000 153.051 M121.600 152.733 C 121.600 153.210,121.780 153.600,122.000 153.600 C 122.220 153.600,122.400 153.937,122.400 154.349 C 122.400 154.954,122.806 155.148,124.500 155.355 C 129.731 155.994,132.000 156.096,132.000 155.690 C 132.000 155.261,128.001 154.491,124.809 154.305 C 123.406 154.223,122.921 154.004,122.569 153.293 C 121.897 151.938,121.600 151.767,121.600 152.733 M222.726 152.789 C 220.533 153.624,216.996 154.311,212.815 154.713 L 209.831 155.000 206.125 162.355 C 203.067 168.425,198.400 179.186,198.400 180.167 C 198.400 180.868,194.961 187.653,193.580 189.677 C 192.707 190.955,192.065 192.000,192.151 192.000 C 194.350 192.000,197.134 187.360,200.669 177.800 C 201.645 175.160,202.929 172.010,203.522 170.800 L 204.600 168.600 207.000 168.367 L 209.400 168.134 206.900 168.067 C 203.822 167.984,203.791 168.407,207.403 161.195 L 210.405 155.200 212.776 155.200 C 215.478 155.200,219.158 154.480,223.800 153.043 C 225.859 152.406,226.572 152.057,225.800 152.064 C 225.140 152.071,223.757 152.397,222.726 152.789 M231.734 152.974 C 236.363 154.198,236.768 154.765,236.790 160.046 C 236.808 164.190,234.764 165.293,224.400 166.728 C 222.016 167.059,221.950 167.093,223.600 167.137 C 227.222 167.234,234.093 165.672,235.740 164.376 C 237.525 162.972,237.876 155.845,236.245 154.132 C 235.605 153.460,230.889 151.997,229.434 152.019 C 228.665 152.031,229.533 152.391,231.734 152.974 M142.500 152.697 C 144.205 152.772,146.995 152.772,148.700 152.697 C 150.405 152.622,149.010 152.561,145.600 152.561 C 142.190 152.561,140.795 152.622,142.500 152.697 M187.200 152.799 C 196.382 153.216,198.020 153.841,198.732 157.200 L 199.114 159.000 199.157 157.551 L 199.200 156.103 202.300 155.852 C 208.252 155.372,209.386 155.097,209.528 154.100 C 209.598 153.605,209.463 153.200,209.228 153.200 C 208.993 153.200,208.800 153.470,208.800 153.800 C 208.800 154.253,208.312 154.400,206.807 154.400 C 205.712 154.400,203.556 154.616,202.018 154.880 C 199.391 155.330,199.166 155.309,198.311 154.535 C 196.638 153.021,194.883 152.704,187.600 152.600 L 180.600 152.499 187.200 152.799 M135.313 153.330 C 133.425 154.019,132.862 154.765,132.403 157.182 C 130.854 165.354,136.706 172.114,145.200 171.962 L 147.800 171.915 144.177 171.424 C 136.555 170.391,132.800 166.426,132.800 159.411 C 132.800 155.215,133.395 154.454,137.600 153.274 L 139.000 152.882 137.800 152.871 C 137.140 152.866,136.021 153.072,135.313 153.330 M154.800 153.220 C 157.429 153.688,161.678 153.648,159.400 153.177 C 158.520 152.995,156.720 152.858,155.400 152.873 L 153.000 152.900 154.800 153.220 M172.200 153.200 C 169.813 153.627,174.264 153.645,177.000 153.218 L 179.000 152.907 176.400 152.910 C 174.970 152.912,173.080 153.042,172.200 153.200 M161.524 153.873 C 162.895 154.422,163.999 155.936,163.984 157.246 L 163.969 158.600 163.404 157.300 C 162.870 156.071,162.077 155.657,161.453 156.280 C 161.045 156.689,137.557 156.259,135.397 155.803 C 133.453 155.393,133.130 157.513,134.431 162.150 C 134.905 163.843,137.473 166.524,138.315 166.207 C 138.598 166.101,138.933 166.280,139.058 166.607 C 139.183 166.933,139.680 167.200,140.163 167.200 C 140.645 167.200,141.211 167.366,141.420 167.568 C 141.891 168.024,144.691 168.408,149.400 168.662 L 153.000 168.856 152.800 164.225 C 152.679 161.430,152.441 159.634,152.200 159.696 C 151.952 159.760,151.857 161.454,151.951 164.139 C 152.092 168.209,152.054 168.469,151.351 168.335 C 150.671 168.205,150.581 167.664,150.400 162.656 C 150.203 157.191,150.431 155.778,151.191 157.776 C 151.683 159.072,151.920 159.064,152.425 157.735 C 152.927 156.415,153.497 156.902,153.671 158.800 C 153.835 160.579,154.591 160.262,154.626 158.400 C 154.674 155.777,155.767 156.685,156.071 159.600 C 156.700 165.634,156.650 168.172,155.900 168.320 C 155.279 168.443,155.199 168.084,155.194 165.129 C 155.191 163.298,155.013 161.530,154.800 161.200 C 154.306 160.435,154.274 160.648,154.234 165.077 L 154.200 168.754 157.600 168.717 C 161.891 168.671,162.982 168.046,163.378 165.406 C 163.769 162.801,164.541 163.075,164.210 165.700 C 163.602 170.514,162.976 171.292,159.439 171.639 L 157.000 171.878 159.671 171.939 C 162.067 171.994,162.421 171.899,163.114 171.019 C 166.242 167.041,165.079 153.457,161.625 153.632 C 161.178 153.654,161.149 153.723,161.524 153.873 M168.100 154.656 C 167.448 155.360,167.208 156.094,167.228 157.314 C 167.250 158.623,167.333 158.821,167.600 158.200 C 167.826 157.674,167.953 158.684,167.972 161.154 C 168.007 165.881,168.514 167.678,169.998 168.335 C 171.170 168.854,185.600 168.966,185.600 168.456 C 185.600 168.315,186.531 168.161,187.667 168.113 C 188.804 168.065,189.920 167.840,190.147 167.613 C 190.374 167.386,190.952 167.200,191.431 167.200 C 191.910 167.200,192.526 166.930,192.800 166.600 C 193.074 166.270,193.538 166.000,193.831 166.000 C 195.356 166.000,197.638 162.268,197.552 159.913 C 197.509 158.704,197.469 158.748,197.052 160.469 C 196.315 163.517,195.957 163.191,196.082 159.584 C 196.184 156.647,196.292 156.207,196.900 156.256 C 197.285 156.286,197.600 156.137,197.600 155.924 C 197.600 155.711,197.105 155.641,196.500 155.768 C 195.895 155.896,193.015 156.031,190.100 156.068 C 187.185 156.106,184.800 156.243,184.800 156.375 C 184.800 156.661,172.424 156.525,170.324 156.216 C 169.512 156.096,168.737 156.179,168.601 156.399 C 168.464 156.620,168.177 156.800,167.962 156.800 C 167.464 156.800,168.042 155.710,169.183 154.500 C 169.685 153.967,169.821 153.617,169.516 153.642 C 169.232 153.665,168.595 154.122,168.100 154.656 M232.261 155.873 C 232.117 156.016,232.000 156.637,232.000 157.253 C 232.000 161.302,227.022 164.348,223.827 162.255 C 222.109 161.129,221.697 162.409,223.300 163.895 C 226.965 167.291,233.600 164.210,233.600 159.111 C 233.600 157.608,232.700 155.433,232.261 155.873 M98.213 157.904 C 97.350 164.180,105.002 168.153,108.675 163.337 C 110.015 161.581,109.756 161.399,107.402 162.440 C 103.991 163.949,100.447 161.962,99.746 158.148 C 99.276 155.590,98.547 155.474,98.213 157.904 M135.422 156.835 C 135.615 157.148,135.812 157.148,136.125 156.835 C 137.041 155.919,137.557 156.405,137.678 158.300 C 137.828 160.635,138.600 160.627,138.600 158.290 C 138.600 154.978,139.772 156.162,140.000 159.705 C 140.256 163.680,141.000 163.602,141.000 159.600 C 141.000 157.200,141.120 156.600,141.600 156.600 C 142.089 156.600,142.237 157.489,142.400 161.400 C 142.658 167.593,143.400 167.664,143.400 161.496 C 143.400 157.766,143.502 157.000,144.000 157.000 C 144.498 157.000,144.619 157.905,144.712 162.300 C 144.807 166.838,144.735 167.600,144.212 167.600 C 143.875 167.600,143.600 167.400,143.600 167.157 C 143.600 166.886,143.219 166.809,142.624 166.958 C 141.733 167.182,141.638 167.073,141.524 165.702 C 141.375 163.896,140.679 163.863,140.400 165.649 C 140.088 167.644,139.271 166.257,139.123 163.482 C 139.055 162.222,138.820 161.202,138.600 161.215 C 138.380 161.228,138.252 161.982,138.315 162.891 C 138.471 165.121,138.181 165.848,137.395 165.196 C 136.968 164.841,136.800 163.879,136.800 161.784 C 136.800 158.681,136.541 157.465,135.958 157.826 C 135.760 157.948,135.712 159.342,135.851 160.924 C 136.114 163.940,135.719 164.225,134.855 161.640 C 133.978 159.017,134.425 155.223,135.422 156.835 M190.225 166.678 C 189.447 168.706,188.713 167.063,188.854 163.608 C 188.944 161.387,188.847 160.011,188.600 160.004 C 188.373 159.998,188.113 161.682,188.000 163.896 C 187.749 168.799,186.600 169.794,186.600 165.110 C 186.600 161.598,185.860 161.583,185.600 165.090 C 185.340 168.606,183.957 169.492,184.110 166.044 C 184.233 163.299,183.449 163.261,183.200 166.000 C 182.983 168.385,182.334 168.927,182.000 167.000 C 181.724 165.407,181.032 165.468,180.875 167.100 C 180.736 168.539,180.160 168.769,179.373 167.700 C 178.882 167.033,178.844 167.033,178.586 167.700 C 177.743 169.874,177.408 168.175,177.600 162.701 C 177.765 157.989,177.904 157.000,178.400 157.000 C 178.899 157.000,179.000 157.788,179.000 161.696 C 179.000 168.026,179.737 168.102,180.000 161.800 C 180.163 157.889,180.311 157.000,180.800 157.000 C 181.292 157.000,181.400 157.699,181.400 160.894 C 181.400 166.033,182.137 166.040,182.400 160.904 C 182.658 155.863,183.800 155.037,183.800 159.891 C 183.800 163.746,184.545 163.830,184.800 160.004 C 184.968 157.493,185.120 156.985,185.743 156.866 C 186.415 156.738,186.459 156.916,186.208 158.744 C 186.055 159.855,186.058 160.971,186.215 161.224 C 186.703 162.014,187.187 160.765,187.194 158.700 C 187.201 156.629,187.793 156.202,188.409 157.824 C 188.828 158.925,189.600 158.808,189.600 157.643 C 189.600 157.253,189.735 156.798,189.900 156.632 C 190.233 156.297,190.543 165.850,190.225 166.678 M192.800 160.850 C 192.800 164.756,192.424 166.400,191.530 166.400 C 191.042 166.400,191.264 157.668,191.773 156.844 C 192.448 155.751,192.800 157.123,192.800 160.850 M195.170 158.900 C 195.129 162.373,194.692 164.904,194.100 165.101 C 193.561 165.280,193.337 157.196,193.867 156.667 C 194.764 155.770,195.199 156.515,195.170 158.900 M146.810 157.826 C 147.340 159.220,147.323 168.000,146.790 168.000 C 145.982 168.000,145.600 165.873,145.600 161.374 C 145.600 156.808,145.989 155.667,146.810 157.826 M149.539 162.380 C 149.685 167.770,149.562 168.514,148.587 168.140 C 147.989 167.910,147.666 157.667,148.239 157.094 C 149.084 156.249,149.410 157.573,149.539 162.380 M158.302 159.632 C 158.516 165.005,159.400 165.511,159.400 160.261 C 159.400 154.899,160.536 155.660,160.800 161.200 C 160.924 163.805,161.152 165.324,161.400 165.200 C 161.641 165.080,161.742 163.467,161.655 161.151 C 161.511 157.341,161.960 155.862,162.839 157.249 C 163.760 158.704,163.184 166.000,162.147 166.000 C 161.835 166.000,161.409 166.450,161.200 167.000 C 160.625 168.511,160.061 168.202,159.923 166.300 C 159.769 164.166,159.000 164.416,159.000 166.600 C 159.000 169.468,157.845 168.671,157.552 165.600 C 156.734 157.028,156.743 156.583,157.737 156.911 C 158.009 157.000,158.242 158.124,158.302 159.632 M169.958 157.522 C 170.194 157.962,170.202 158.468,169.978 158.822 C 169.777 159.140,169.609 161.065,169.606 163.100 C 169.599 167.136,169.061 168.045,168.659 164.700 C 168.007 159.268,168.736 155.238,169.958 157.522 M172.078 162.586 C 171.969 167.471,171.884 168.036,171.278 167.916 C 170.390 167.741,170.260 158.784,171.127 157.542 C 172.054 156.215,172.203 157.003,172.078 162.586 M174.400 162.375 C 174.400 167.473,173.752 169.905,172.951 167.817 C 172.624 166.964,172.983 157.875,173.368 157.252 C 174.088 156.087,174.400 157.637,174.400 162.375 M176.737 162.856 C 176.622 167.538,176.505 168.401,176.000 168.305 C 175.246 168.161,174.907 158.895,175.608 157.586 C 176.554 155.818,176.874 157.311,176.737 162.856 M100.958 161.465 L 102.666 163.350 105.397 163.325 L 108.129 163.299 107.165 164.041 C 104.091 166.404,98.400 163.092,98.400 158.940 C 98.400 157.702,98.984 157.389,99.126 158.551 C 99.195 159.117,100.019 160.428,100.958 161.465 M232.975 159.738 C 232.096 163.825,227.468 166.345,224.700 164.243 C 223.628 163.430,223.824 163.308,226.149 163.342 C 228.892 163.381,230.897 162.121,231.889 159.733 C 232.678 157.836,233.384 157.840,232.975 159.738 M198.684 161.516 C 197.800 167.437,194.480 170.418,187.666 171.408 L 184.200 171.912 186.800 171.936 C 193.532 171.996,199.530 166.719,199.123 161.095 L 199.000 159.400 198.684 161.516 M166.937 163.400 C 166.939 165.160,167.009 165.830,167.093 164.889 C 167.178 163.949,167.177 162.509,167.091 161.689 C 167.005 160.870,166.936 161.640,166.937 163.400 M215.200 162.569 C 215.200 163.953,213.117 165.691,211.730 165.466 C 209.977 165.182,209.930 166.108,211.660 166.825 C 212.767 167.283,212.828 167.384,212.160 167.645 C 211.091 168.065,217.401 168.018,219.600 167.590 C 221.023 167.314,220.583 167.266,217.500 167.364 C 215.355 167.433,213.600 167.334,213.600 167.144 C 213.600 166.955,213.773 166.800,213.984 166.800 C 214.196 166.800,214.736 166.406,215.184 165.925 C 216.038 165.008,216.357 162.000,215.600 162.000 C 215.380 162.000,215.200 162.256,215.200 162.569 M115.624 162.971 C 115.047 163.667,115.974 165.727,117.213 166.501 C 118.619 167.379,118.066 167.527,113.900 167.384 C 110.668 167.273,110.223 167.316,111.800 167.586 C 114.673 168.080,119.703 168.090,119.401 167.602 C 119.266 167.383,119.615 166.994,120.177 166.737 C 121.434 166.165,121.601 165.019,120.371 165.409 C 119.094 165.814,117.305 164.876,116.847 163.562 C 116.384 162.235,116.278 162.184,115.624 162.971 M118.200 165.726 C 119.120 166.218,119.221 166.372,118.631 166.384 C 117.778 166.402,116.397 165.318,116.406 164.638 C 116.411 164.324,116.495 164.325,116.706 164.642 C 116.868 164.885,117.540 165.373,118.200 165.726 M214.531 165.647 C 214.065 166.113,213.440 166.395,213.142 166.274 C 212.775 166.125,212.890 165.966,213.500 165.780 C 213.995 165.630,214.400 165.348,214.400 165.153 C 214.400 164.959,214.620 164.800,214.889 164.800 C 215.161 164.800,215.003 165.175,214.531 165.647 M167.228 167.720 C 167.158 170.537,168.865 172.027,172.074 171.948 L 174.200 171.895 171.905 171.601 C 169.105 171.242,168.554 170.816,167.825 168.449 C 167.358 166.932,167.251 166.801,167.228 167.720 M90.413 170.233 C 90.405 170.941,90.613 171.483,90.900 171.504 C 91.175 171.525,91.805 171.666,92.300 171.818 C 92.861 171.989,93.200 171.925,93.200 171.647 C 93.200 171.401,93.011 171.200,92.781 171.200 C 92.550 171.200,91.926 170.705,91.393 170.100 L 90.425 169.000 90.413 170.233 M90.511 177.200 C 90.504 179.510,90.629 182.660,90.787 184.200 C 91.059 186.848,91.075 186.761,91.090 182.600 C 91.099 180.180,90.975 177.030,90.814 175.600 C 90.543 173.183,90.521 173.296,90.511 177.200 M240.480 183.000 C 240.193 188.350,239.869 190.109,239.137 190.301 C 238.387 190.497,238.098 191.200,238.767 191.200 C 238.969 191.200,239.427 191.312,239.784 191.449 C 240.141 191.586,240.396 191.541,240.351 191.349 C 240.306 191.157,240.396 190.550,240.552 190.000 C 240.707 189.450,240.774 187.290,240.700 185.200 C 240.626 183.110,240.527 182.120,240.480 183.000 M101.000 186.139 C 99.216 186.653,96.800 188.003,96.800 188.486 C 96.800 189.013,97.768 188.839,99.506 188.000 C 103.004 186.310,105.681 189.555,103.000 192.236 C 101.798 193.439,101.770 193.600,102.771 193.600 C 104.572 193.600,105.889 190.666,105.020 188.587 C 104.101 186.387,104.166 186.369,113.132 186.401 C 123.092 186.435,122.330 186.472,121.600 186.000 C 120.739 185.444,102.998 185.564,101.000 186.139 M210.200 186.000 C 210.038 186.262,212.875 186.400,218.414 186.400 C 226.538 186.400,226.883 186.432,227.084 187.200 C 227.308 188.057,228.375 188.265,229.056 187.584 C 229.615 187.025,232.973 187.929,234.046 188.928 C 235.441 190.228,235.320 189.347,233.911 187.940 C 233.096 187.127,231.824 186.403,230.678 186.100 C 228.332 185.479,210.575 185.393,210.200 186.000 M123.090 186.243 C 122.424 186.909,123.498 187.200,126.624 187.200 C 128.608 187.200,130.000 187.035,130.000 186.800 C 130.000 186.572,128.811 186.400,127.233 186.400 C 125.711 186.400,124.216 186.304,123.912 186.188 C 123.607 186.071,123.238 186.096,123.090 186.243 M201.600 186.800 C 201.600 187.039,203.141 187.200,205.424 187.200 C 207.871 187.200,209.158 187.056,209.000 186.800 C 208.864 186.580,207.143 186.400,205.176 186.400 C 203.059 186.400,201.600 186.563,201.600 186.800 M139.770 187.648 C 139.651 187.842,140.238 188.023,141.076 188.051 C 141.914 188.079,143.017 188.145,143.527 188.198 C 144.036 188.250,144.306 188.159,144.127 187.995 C 143.625 187.538,140.016 187.251,139.770 187.648 M188.800 187.600 L 187.000 187.880 188.900 187.940 C 191.121 188.010,191.174 188.169,189.659 190.240 C 188.040 192.452,187.163 193.140,185.159 193.769 C 183.553 194.273,183.504 194.324,184.600 194.359 C 186.261 194.412,188.116 193.177,189.775 190.915 C 191.036 189.196,191.680 187.104,190.900 187.260 C 190.735 187.293,189.790 187.446,188.800 187.600 M147.600 188.414 C 149.030 188.575,152.540 188.698,155.400 188.687 L 160.600 188.668 156.600 188.381 C 150.897 187.972,143.893 187.998,147.600 188.414 M175.800 188.400 L 172.200 188.649 177.000 188.685 C 179.640 188.705,182.790 188.584,184.000 188.417 C 186.857 188.022,181.431 188.011,175.800 188.400 M91.212 190.776 C 91.201 192.414,91.245 192.492,91.776 191.776 C 92.277 191.100,92.462 191.068,93.215 191.528 C 93.689 191.818,94.182 191.951,94.310 191.824 C 94.593 191.540,93.185 190.430,92.520 190.413 C 92.256 190.406,91.856 190.085,91.632 189.700 C 91.310 189.148,91.222 189.375,91.212 190.776 M174.400 194.800 L 171.400 195.056 175.600 195.105 C 177.910 195.132,180.520 195.005,181.400 194.823 C 183.410 194.407,179.170 194.393,174.400 194.800 M91.408 198.400 C 91.576 201.610,92.217 204.400,92.787 204.400 C 92.979 204.400,92.892 203.725,92.594 202.900 C 92.295 202.075,91.871 200.050,91.651 198.400 L 91.251 195.400 91.408 198.400 M181.800 196.423 C 180.920 196.605,178.535 196.764,176.500 196.777 C 174.315 196.791,172.800 196.964,172.800 197.200 C 172.800 197.670,183.154 197.670,185.000 197.200 C 185.660 197.032,186.020 196.871,185.800 196.841 C 185.580 196.812,185.670 196.613,186.000 196.400 C 186.746 195.918,184.175 195.932,181.800 196.423 M178.200 198.800 C 178.043 199.054,179.129 199.200,181.176 199.200 C 183.059 199.200,184.400 199.034,184.400 198.800 C 184.400 198.569,183.141 198.400,181.424 198.400 C 179.787 198.400,178.336 198.580,178.200 198.800 M171.300 203.098 C 173.225 203.171,176.375 203.171,178.300 203.098 C 180.225 203.025,178.650 202.965,174.800 202.965 C 170.950 202.965,169.375 203.025,171.300 203.098 " stroke="none" fill="#9c9c9c" fill-rule="evenodd"></path><path id="path4" d="M52.800 190.384 C 52.800 243.519,52.704 248.227,51.536 252.600 C 49.460 260.371,44.016 263.251,34.200 261.768 C 31.780 261.403,29.215 261.016,28.500 260.908 L 27.200 260.712 27.200 272.728 L 27.200 284.743 29.300 285.154 C 55.149 290.214,74.161 281.578,80.714 261.800 C 81.421 259.665,81.697 258.633,82.582 254.800 C 83.901 249.087,83.994 244.854,83.997 190.300 L 84.000 136.000 68.400 136.000 L 52.800 136.000 52.800 190.384 M83.598 187.300 C 83.597 235.843,83.414 245.589,82.381 252.200 C 81.727 256.388,80.213 261.930,78.981 264.644 C 78.670 265.328,78.276 266.228,78.104 266.644 C 71.966 281.552,52.564 288.855,30.100 284.714 L 27.600 284.253 27.600 272.700 C 27.600 261.880,27.644 261.160,28.300 261.364 C 38.858 264.656,48.036 262.412,51.045 255.802 C 53.251 250.956,53.199 252.486,53.200 192.100 L 53.200 136.400 68.400 136.400 L 83.600 136.400 83.598 187.300 M246.667 139.867 C 246.520 140.013,246.400 167.465,246.400 200.871 L 246.400 261.610 261.700 261.505 L 277.000 261.400 277.234 236.600 C 277.480 210.528,277.496 210.295,279.409 204.546 C 282.850 194.200,296.140 192.183,300.147 201.400 C 301.800 205.203,301.756 204.435,301.982 233.400 L 302.200 261.400 317.600 261.400 L 333.000 261.400 333.000 229.800 C 333.000 194.181,332.943 193.485,329.493 186.600 C 320.383 168.426,291.518 165.385,278.857 181.264 C 276.210 184.584,275.825 184.418,276.154 180.100 C 276.960 169.546,277.520 141.700,276.957 140.233 C 276.704 139.573,247.315 139.218,246.667 139.867 M276.400 154.231 C 276.400 161.838,276.229 170.163,276.019 172.731 C 275.177 183.047,275.185 183.941,276.115 184.237 C 276.747 184.437,277.204 184.201,277.976 183.275 C 278.539 182.600,279.787 181.128,280.750 180.005 C 291.438 167.528,317.651 169.573,327.038 183.616 C 332.248 191.409,332.399 192.719,332.399 230.300 L 332.400 261.200 317.600 261.200 L 302.800 261.200 302.799 235.500 C 302.799 208.208,302.642 205.471,300.844 201.407 C 296.250 191.021,282.750 193.201,278.590 205.000 C 276.775 210.148,276.407 215.956,276.403 239.500 L 276.400 261.200 261.600 261.200 L 246.800 261.200 246.800 200.800 L 246.800 140.400 261.600 140.400 L 276.400 140.400 276.400 154.231 M140.000 188.319 C 140.000 188.495,141.693 188.955,143.763 189.341 C 148.937 190.308,153.355 191.937,157.748 194.500 C 159.890 195.749,160.706 195.750,158.923 194.500 C 157.331 193.385,151.336 190.624,149.200 190.023 C 148.210 189.745,146.987 189.355,146.481 189.158 C 145.976 188.961,145.041 188.800,144.405 188.800 C 143.768 188.800,143.136 188.620,143.000 188.400 C 142.708 187.927,140.000 187.855,140.000 188.319 M240.000 191.795 C 240.000 191.932,240.990 192.482,242.200 193.017 C 244.850 194.189,244.833 193.503,242.364 199.800 C 241.243 202.660,240.186 205.360,240.016 205.800 C 239.846 206.240,239.503 207.095,239.254 207.700 C 239.004 208.305,238.644 209.205,238.454 209.700 C 238.263 210.195,237.879 211.083,237.600 211.673 L 237.094 212.746 235.047 211.919 C 228.691 209.349,225.661 208.464,219.600 207.407 C 210.767 205.867,204.400 208.410,204.400 213.479 C 204.400 217.075,206.731 218.987,217.494 224.219 C 230.480 230.532,231.272 230.967,235.173 233.935 C 243.529 240.292,247.069 252.809,243.450 263.200 C 241.987 267.401,241.869 267.200,245.800 267.200 C 249.200 267.200,250.915 268.150,248.100 268.473 L 247.000 268.600 246.886 272.500 C 246.781 276.070,246.705 276.400,245.986 276.400 C 245.268 276.400,245.200 276.113,245.200 273.076 C 245.200 267.291,242.909 266.341,239.668 270.782 C 230.010 284.020,203.865 288.182,183.068 279.794 L 179.800 278.476 179.694 267.638 C 179.635 261.677,179.658 256.800,179.744 256.800 C 179.894 256.800,183.740 258.429,185.400 259.197 C 192.276 262.374,206.007 264.855,211.685 263.946 C 219.839 262.639,222.838 256.589,217.753 251.699 C 216.040 250.052,214.959 249.479,200.200 242.402 C 188.992 237.027,183.163 231.153,180.943 223.000 C 179.897 219.157,179.996 210.160,181.122 206.716 C 182.106 203.708,182.175 203.200,181.600 203.200 C 181.380 203.200,181.240 203.335,181.289 203.500 C 181.339 203.665,181.087 204.700,180.730 205.800 C 177.921 214.461,179.630 225.680,184.714 231.948 C 188.897 237.105,193.650 240.276,204.400 245.084 C 217.208 250.812,220.160 253.306,219.336 257.700 C 218.086 264.372,206.986 265.379,190.600 260.305 C 186.590 259.063,184.329 258.187,181.462 256.763 C 178.630 255.358,178.776 254.763,178.894 267.266 L 179.000 278.532 180.200 279.188 C 180.860 279.549,182.030 280.078,182.800 280.363 C 183.570 280.648,184.560 281.034,185.000 281.222 C 188.425 282.685,194.610 283.860,201.930 284.438 C 219.241 285.807,233.133 280.934,240.253 270.997 C 242.944 267.242,244.400 268.043,244.400 273.280 L 244.400 276.800 245.786 276.800 L 247.171 276.800 247.286 272.900 L 247.400 269.000 248.524 268.871 C 249.482 268.761,249.629 268.584,249.524 267.671 C 249.403 266.624,249.330 266.597,246.300 266.483 C 244.595 266.419,243.204 266.239,243.210 266.083 C 243.215 265.927,243.551 264.810,243.955 263.600 C 249.075 248.278,242.825 235.921,225.757 227.623 C 223.361 226.458,219.150 224.410,216.400 223.071 C 206.973 218.482,205.400 217.127,205.400 213.600 C 205.400 205.947,219.242 205.600,235.496 212.844 C 236.428 213.260,237.265 213.600,237.355 213.600 C 237.555 213.600,245.200 194.542,245.200 194.043 C 245.200 193.848,244.435 193.332,243.500 192.896 C 241.366 191.902,240.000 191.472,240.000 191.795 M168.000 203.592 C 168.000 203.808,168.597 204.933,169.326 206.092 C 174.108 213.692,176.400 223.512,176.400 236.400 C 176.400 262.486,165.867 278.464,145.600 283.123 C 140.218 284.360,138.504 284.524,131.000 284.524 C 123.496 284.524,121.782 284.360,116.400 283.123 C 92.851 277.710,80.801 253.438,86.454 222.800 C 87.545 216.885,91.374 206.681,92.844 205.773 C 93.040 205.652,93.199 205.248,93.197 204.876 C 93.191 203.161,89.383 210.323,87.809 215.011 C 83.980 226.417,83.702 242.956,87.126 255.600 C 93.324 278.486,115.571 289.497,144.600 284.047 C 159.719 281.208,170.836 270.439,175.000 254.600 C 177.521 245.011,177.701 228.353,175.379 219.400 C 174.730 216.895,174.273 215.308,173.997 214.600 C 173.826 214.160,173.302 212.820,172.833 211.623 C 172.364 210.425,171.265 208.205,170.390 206.688 C 169.516 205.171,168.800 203.766,168.800 203.565 C 168.800 203.364,168.620 203.200,168.400 203.200 C 168.180 203.200,168.000 203.377,168.000 203.592 M127.978 208.391 C 120.246 209.159,114.808 214.809,112.379 224.600 C 111.344 228.774,111.025 242.618,111.886 246.000 C 112.138 246.990,112.563 248.700,112.831 249.800 C 115.810 262.022,128.417 267.975,139.840 262.554 C 147.556 258.893,151.845 246.288,150.408 231.500 C 148.715 214.081,141.855 207.013,127.978 208.391 M135.754 209.250 C 145.646 211.951,149.769 219.939,149.769 236.400 C 149.769 248.235,147.831 255.029,143.228 259.335 C 136.477 265.650,124.198 265.306,118.098 258.631 C 109.017 248.695,109.962 220.193,119.630 212.424 C 123.497 209.316,130.761 207.886,135.754 209.250 M251.051 267.011 C 250.913 267.371,250.800 269.721,250.800 272.233 L 250.800 276.800 252.178 276.800 C 253.538 276.800,253.558 276.775,253.678 274.900 C 253.799 273.018,253.814 273.000,255.200 273.000 C 256.586 273.000,256.601 273.018,256.722 274.900 C 256.842 276.779,256.859 276.800,258.234 276.800 L 259.624 276.800 259.512 271.700 L 259.400 266.600 258.200 266.600 C 257.074 266.600,256.988 266.711,256.800 268.400 C 256.605 270.152,256.563 270.200,255.200 270.200 C 253.837 270.200,253.795 270.152,253.600 268.400 C 253.383 266.449,251.633 265.495,251.051 267.011 M262.049 266.940 C 261.726 267.330,261.610 268.978,261.686 272.057 L 261.800 276.600 264.928 276.717 L 268.056 276.835 267.928 275.717 C 267.816 274.743,267.609 274.584,266.300 274.476 C 264.209 274.303,264.080 272.800,266.157 272.800 C 267.566 272.800,268.172 272.113,267.745 271.000 C 267.601 270.626,266.991 270.400,266.128 270.400 C 264.068 270.400,264.422 269.048,266.527 268.874 C 267.917 268.760,268.037 268.656,267.924 267.674 C 267.775 266.382,263.008 265.786,262.049 266.940 M275.319 267.184 C 272.292 269.029,271.924 273.050,274.520 275.900 C 275.527 277.006,279.557 277.216,280.396 276.205 C 281.276 275.145,280.573 274.400,278.693 274.400 C 276.532 274.400,276.000 273.883,276.000 271.782 C 276.000 269.641,276.908 268.773,279.012 268.904 C 280.274 268.982,280.599 268.853,280.728 268.226 C 281.095 266.440,277.634 265.772,275.319 267.184 M284.481 267.300 C 283.870 268.509,281.600 275.565,281.600 276.253 C 281.600 277.198,284.432 276.966,284.684 276.000 C 284.848 275.375,285.230 275.200,286.433 275.200 C 287.562 275.200,288.086 275.413,288.400 276.000 C 289.144 277.390,291.696 277.131,291.348 275.700 C 290.795 273.423,288.712 267.380,288.315 266.900 C 287.579 266.009,284.997 266.278,284.481 267.300 M293.100 266.628 C 292.935 266.796,292.800 269.165,292.800 271.892 L 292.800 276.851 294.100 276.725 C 295.287 276.611,295.411 276.469,295.524 275.100 C 295.684 273.171,296.180 273.201,297.200 275.200 C 297.912 276.596,298.191 276.800,299.385 276.800 C 301.248 276.800,301.334 276.453,299.972 274.424 C 298.621 272.413,298.592 272.270,299.400 271.600 C 300.446 270.732,300.172 268.131,298.951 267.331 C 297.852 266.611,293.617 266.103,293.100 266.628 M308.162 267.009 C 305.262 268.281,304.502 273.240,306.847 275.585 C 308.052 276.791,308.195 276.828,311.147 276.716 L 314.200 276.600 314.200 273.800 L 314.200 271.000 312.470 270.876 C 309.871 270.689,308.656 271.987,310.600 272.873 C 311.870 273.451,311.900 274.400,310.649 274.400 C 309.386 274.400,308.640 273.428,308.640 271.783 C 308.640 269.696,309.802 268.680,311.840 268.985 C 313.332 269.209,313.522 269.142,313.743 268.317 C 314.223 266.517,311.003 265.762,308.162 267.009 M316.685 266.648 C 316.214 267.119,316.364 273.985,316.865 274.926 C 318.043 277.137,322.276 277.635,324.030 275.768 C 325.187 274.538,325.730 268.121,324.775 266.970 C 323.439 265.361,322.611 266.418,322.400 270.000 C 322.182 273.700,321.932 274.400,320.825 274.400 C 319.592 274.400,319.239 273.488,319.117 269.980 C 319.001 266.617,318.036 265.297,316.685 266.648 M326.560 266.959 C 326.431 267.297,326.901 268.614,327.605 269.886 C 328.381 271.289,328.986 273.066,329.142 274.400 C 329.518 277.609,332.000 278.123,332.000 274.992 C 332.000 273.574,332.385 272.427,333.621 270.162 C 335.326 267.037,335.356 266.400,333.804 266.400 C 332.882 266.400,331.200 268.184,331.200 269.162 C 331.200 270.056,330.517 269.555,329.754 268.100 C 328.891 266.456,327.011 265.784,326.560 266.959 M253.277 268.900 L 253.400 270.600 255.200 270.600 L 257.000 270.600 257.123 268.900 C 257.222 267.526,257.395 267.200,258.023 267.200 C 258.747 267.200,258.800 267.512,258.800 271.800 C 258.800 276.090,258.748 276.400,258.022 276.400 C 257.377 276.400,257.223 276.074,257.122 274.500 L 257.000 272.600 255.200 272.600 L 253.400 272.600 253.278 274.500 C 253.177 276.074,253.023 276.400,252.378 276.400 C 251.652 276.400,251.600 276.090,251.600 271.800 C 251.600 267.512,251.653 267.200,252.377 267.200 C 253.005 267.200,253.178 267.526,253.277 268.900 M267.502 267.900 C 267.612 268.235,267.211 268.400,266.282 268.400 C 265.521 268.400,264.693 268.647,264.442 268.949 C 263.716 269.824,264.349 270.800,265.643 270.800 C 267.199 270.800,267.159 271.828,265.591 272.142 C 263.286 272.603,263.592 274.836,266.010 275.200 C 268.549 275.583,267.884 276.400,265.033 276.400 L 262.400 276.400 262.400 272.067 C 262.400 269.683,262.528 267.605,262.684 267.449 C 263.166 266.968,267.322 267.356,267.502 267.900 M279.765 267.442 C 280.816 267.845,280.048 268.400,278.438 268.400 C 276.379 268.400,275.400 269.520,275.400 271.877 C 275.400 274.163,276.669 275.391,278.691 275.063 C 279.411 274.946,280.000 274.914,280.000 274.992 C 280.000 276.849,276.545 277.007,274.769 275.231 C 271.266 271.727,275.150 265.671,279.765 267.442 M287.823 267.506 C 288.193 267.763,290.808 275.305,290.802 276.100 C 290.801 276.265,290.440 276.400,290.000 276.400 C 289.560 276.400,289.200 276.233,289.200 276.029 C 289.200 274.265,285.039 273.721,284.400 275.400 C 283.637 277.407,281.968 276.756,282.607 274.700 C 285.056 266.823,285.653 265.999,287.823 267.506 M299.004 268.003 C 299.866 268.719,299.736 270.404,298.736 271.468 L 297.873 272.387 299.120 274.394 L 300.367 276.400 299.423 276.400 C 298.740 276.400,298.267 275.993,297.715 274.928 C 296.255 272.116,294.820 272.201,294.806 275.100 C 294.801 276.131,294.635 276.400,294.000 276.400 C 293.246 276.400,293.200 276.133,293.200 271.745 L 293.200 267.090 295.804 267.299 C 297.236 267.414,298.676 267.731,299.004 268.003 M313.102 267.900 C 313.217 268.250,312.727 268.400,311.462 268.400 C 307.474 268.400,306.203 274.166,310.007 275.002 C 312.222 275.488,313.374 273.084,311.198 272.515 C 309.766 272.141,310.358 271.600,312.200 271.600 L 314.000 271.600 314.000 273.586 C 314.000 276.301,311.354 277.364,308.189 275.922 C 305.380 274.642,305.218 269.583,307.930 267.875 C 309.183 267.086,312.840 267.104,313.102 267.900 M318.800 270.469 C 318.800 274.765,320.070 276.346,322.069 274.538 C 322.666 273.997,322.800 273.264,322.800 270.538 C 322.800 267.467,322.864 267.200,323.600 267.200 C 325.012 267.200,324.793 274.433,323.346 275.571 C 321.930 276.685,319.264 276.692,318.075 275.584 C 316.793 274.389,316.728 267.200,318.000 267.200 C 318.735 267.200,318.800 267.467,318.800 270.469 M329.400 268.800 C 329.956 269.680,330.584 270.400,330.797 270.400 C 331.010 270.400,331.551 269.680,332.000 268.800 C 332.750 267.329,333.506 266.840,334.105 267.438 C 334.236 267.569,333.726 268.799,332.971 270.171 C 331.962 272.008,331.600 273.159,331.600 274.533 C 331.600 276.133,331.486 276.400,330.800 276.400 C 330.128 276.400,330.000 276.133,330.000 274.733 C 330.000 273.580,329.569 272.281,328.600 270.519 C 326.604 266.888,327.278 265.439,329.400 268.800 M294.954 268.977 C 294.255 270.797,295.934 272.244,297.235 270.943 C 297.935 270.242,298.002 269.952,297.626 269.249 C 297.103 268.271,295.295 268.087,294.954 268.977 M286.030 269.364 C 285.330 270.207,285.027 272.646,285.579 272.987 C 286.756 273.715,288.069 272.827,287.799 271.485 C 287.219 268.600,286.941 268.267,286.030 269.364 M296.959 269.436 C 297.262 270.227,296.934 270.800,296.176 270.800 C 295.859 270.800,295.600 270.470,295.600 270.067 C 295.600 268.771,296.537 268.336,296.959 269.436 M287.200 271.400 C 287.200 272.481,286.520 273.080,285.946 272.506 C 285.700 272.260,285.734 271.744,286.039 271.073 C 286.595 269.855,287.200 270.025,287.200 271.400 " stroke="none" fill="#99d67f" fill-rule="evenodd"></path></g></svg>